<?xml version="1.0" encoding="UTF-8"?>
<svg version="1.1" xmlns="http://www.w3.org/2000/svg" viewBox="340 320 344 360" preserveAspectRatio="xMidYMid meet">
<path d="M0 0 C1.1875 1.3046875 1.1875 1.3046875 1.1875 3.3046875 C1.8475 3.3046875 2.5075 3.3046875 3.1875 3.3046875 C5.77049204 5.73358058 7.93940283 8.56859893 10.1875 11.3046875 C10.93386719 12.1915625 11.68023438 13.0784375 12.44921875 13.9921875 C36.05102444 43.18089406 48.20192336 80.55559859 44.94873047 118.05712891 C41.79048201 147.20979133 31.53644318 173.33047175 13.1875 196.3046875 C12.77709473 196.82337402 12.36668945 197.34206055 11.94384766 197.87646484 C7.42279922 203.56738026 2.8520689 208.97602145 -2.77734375 213.609375 C-5.07151092 215.52044707 -7.20565107 217.56577682 -9.375 219.6171875 C-29.66881001 237.86299833 -56.24077682 249.1957804 -82.8125 254.3046875 C-83.90433594 254.51738281 -84.99617187 254.73007812 -86.12109375 254.94921875 C-112.60405265 259.54488827 -141.83308638 258.29845435 -167.15625 248.94140625 C-172.97924084 247.54560109 -177.66990704 249.98066291 -182.6953125 252.734375 C-183.34345413 253.08094147 -183.99159576 253.42750793 -184.65937805 253.78457642 C-186.04193679 254.52557286 -187.42234819 255.27058768 -188.80075073 256.01928711 C-190.95395704 257.18862479 -193.11304476 258.34641103 -195.27368164 259.50195312 C-201.57310987 262.87953586 -207.84431672 266.29749424 -214.05078125 269.84375 C-215.39342041 270.60582764 -215.39342041 270.60582764 -216.76318359 271.38330078 C-218.36167649 272.29694948 -219.95263258 273.22398353 -221.53369141 274.16748047 C-226.28557611 276.88823935 -231.2201999 278.96760242 -236.8125 278.3046875 C-239.19209979 276.72992717 -239.74671172 275.52136595 -240.57592773 272.7902832 C-240.90582715 267.92962895 -240.26048874 263.34949445 -239.59765625 258.53515625 C-239.39576942 256.98179314 -239.39576942 256.98179314 -239.18980408 255.39704895 C-238.75976424 252.09428523 -238.3183604 248.79318747 -237.875 245.4921875 C-237.43623194 242.20178889 -237.00012387 238.9111199 -236.57090759 235.61946106 C-236.30406381 233.57514564 -236.03171977 231.53153793 -235.75294495 229.48881531 C-233.89954875 219.68254337 -233.89954875 219.68254337 -235.97221375 210.42941284 C-237.44364221 208.69133273 -239.01716714 207.16476989 -240.6875 205.6171875 C-241.89405231 204.40833386 -243.09448415 203.19334384 -244.2890625 201.97265625 C-244.88750977 201.36341309 -245.48595703 200.75416992 -246.10253906 200.12646484 C-272.18179824 172.34185149 -281.51938325 132.57024387 -280.75585938 95.55908203 C-278.96029673 56.10996201 -259.99072424 21.58094584 -231.64404297 -5.0234375 C-165.5053509 -65.39637316 -64.78212878 -56.12589605 0 0 Z " fill="#22D6EC" transform="translate(631.8125,368.6953125)"/>
<path d="M0 0 C12.87 0 25.74 0 39 0 C39.33 17.16 39.66 34.32 40 52 C44.62 49.69 49.24 47.38 54 45 C73.0435913 39.26843369 91.24659399 41.62918516 108.671875 50.87890625 C114.46775258 54.57275781 119.21194077 59.10178603 124 64 C124.59296875 64.56074219 125.1859375 65.12148438 125.796875 65.69921875 C129.5124156 69.50465146 131.79041569 74.11667051 134.1875 78.8125 C134.52104492 79.46436279 134.85458984 80.11622559 135.19824219 80.7878418 C140.04801463 90.69861795 141.55885401 99.66168632 141.5 110.6875 C141.49427979 111.92757812 141.48855957 113.16765625 141.48266602 114.4453125 C141.29942836 123.85274599 140.22311091 131.47893824 136 140 C135.48050781 141.05832031 134.96101562 142.11664062 134.42578125 143.20703125 C125.87138586 159.05958215 112.98136968 169.57249209 95.99609375 175.125 C79.28665728 180.00493972 61.86298623 177.38089612 46.59375 169.5 C44 168 44 168 40 165 C39.67 168.96 39.34 172.92 39 177 C26.13 177 13.26 177 0 177 C0 118.59 0 60.18 0 0 Z " fill="#162F3D" transform="translate(450,379)"/>
<path d="M0 0 C6.87244642 4.46834886 11.48236454 11.23636641 14 19 C15.06018583 30.47712804 14.25698324 40.12342012 6.6875 49.3125 C-0.57544402 56.92861043 -8.40868957 60.88303365 -19.125 61.375 C-28.25819988 60.49114195 -36.41345476 56.82636459 -42.79296875 50.11328125 C-49.86209122 41.22887794 -51.17975447 32.15511208 -50.29296875 21.07275391 C-49.10026558 12.63437896 -43.97834454 5.8438217 -37.4765625 0.625 C-25.31596279 -7.35419476 -12.51584691 -6.87464635 0 0 Z " fill="#22D8ED" transform="translate(539,461)"/>
<path d="M0 0 C0.33 0 0.66 0 1 0 C1.76915702 21.97974436 2.14450626 43.92686029 2.10139394 65.91939592 C2.09496502 69.7802768 2.0945417 73.64115928 2.09336853 77.50204468 C2.09031089 84.75056844 2.08217611 91.99907637 2.07201904 99.24759328 C2.06068046 107.52633567 2.05530366 115.80507899 2.05032361 124.08382726 C2.03998594 141.05589546 2.02171365 158.02794196 2 175 C14.87 175 27.74 175 41 175 C41 170.71 41 166.42 41 162 C41.98742187 162.56589844 42.97484375 163.13179687 43.9921875 163.71484375 C45.28644206 164.45575759 46.58071379 165.19664145 47.875 165.9375 C48.52597656 166.31068359 49.17695313 166.68386719 49.84765625 167.06835938 C53.38746834 169.10133078 53.38746834 169.10133078 57 171 C56.67 171.66 56.34 172.32 56 173 C49.565 169.535 49.565 169.535 43 166 C43.020625 167.44375 43.04125 168.8875 43.0625 170.375 C43.125 174.75 43.125 174.75 42 177 C28.14 177 14.28 177 0 177 C0 118.59 0 60.18 0 0 Z " fill="#2BF4FC" transform="translate(448,381)"/>
<path d="M0 0 C1.72974441 0.00015918 3.45949355 0.0058569 5.18920898 0.01586914 C6.09783188 0.01728409 7.00645477 0.01869904 7.94261169 0.02015686 C10.85687494 0.02577346 13.77106254 0.03832874 16.68530273 0.05102539 C18.65600475 0.05603825 20.62670797 0.06060153 22.59741211 0.06469727 C27.43923832 0.07574828 32.28100768 0.09302401 37.12280273 0.11352539 C37.12280273 0.44352539 37.12280273 0.77352539 37.12280273 1.11352539 C24.25280273 1.11352539 11.38280273 1.11352539 -1.87719727 1.11352539 C-1.87719727 12.99352539 -1.87719727 24.87352539 -1.87719727 37.11352539 C-2.20719727 37.11352539 -2.53719727 37.11352539 -2.87719727 37.11352539 C-3.20719727 83.31352539 -3.53719727 129.51352539 -3.87719727 177.11352539 C-4.20719727 177.11352539 -4.53719727 177.11352539 -4.87719727 177.11352539 C-4.90052377 154.18324816 -4.91817522 131.25297287 -4.92900944 108.3226862 C-4.93417292 97.67654589 -4.94121662 87.03041293 -4.95263672 76.38427734 C-4.96258195 67.10865618 -4.96905031 57.83304034 -4.97128576 48.557414 C-4.97259314 43.64284858 -4.97568071 38.72829841 -4.98292732 33.81373787 C-4.98968501 29.19358191 -4.99181474 24.57344756 -4.99030495 19.95328712 C-4.99058139 18.25245802 -4.992588 16.55162823 -4.99640274 14.85080338 C-5.00133608 12.53898202 -5.0001969 10.22724358 -4.99745178 7.91542053 C-4.99837358 6.6184578 -4.99929537 5.32149508 -5.00024509 3.98523045 C-4.81238312 -0.39911507 -4.5808921 0.13412977 0 0 Z " fill="#20C6DB" transform="translate(451.877197265625,377.886474609375)"/>
<path d="M0 0 C5.82071622 -0.02464638 11.64140234 -0.0428343 17.4621582 -0.05493164 C19.44393441 -0.05997267 21.42570689 -0.06680538 23.4074707 -0.07543945 C26.24952109 -0.08751515 29.09152247 -0.09323045 31.93359375 -0.09765625 C32.82525742 -0.10281754 33.71692108 -0.10797882 34.63560486 -0.11329651 C36.75740601 -0.11349177 38.8791078 -0.0621003 41 0 C42 1 42 1 42.12025452 3.01844788 C42.11803391 3.90447189 42.11581329 4.79049591 42.11352539 5.70336914 C42.11344986 6.70433121 42.11337433 7.70529327 42.11329651 8.73658752 C42.10813522 9.8251152 42.10297394 10.91364288 42.09765625 12.03515625 C42.0962413 13.14354355 42.09482635 14.25193085 42.09336853 15.39390564 C42.08775033 18.95013069 42.07519475 22.50629383 42.0625 26.0625 C42.05748734 28.46679597 42.05292403 30.87109292 42.04882812 33.27539062 C42.03777499 39.18361504 42.02101917 45.0918031 42 51 C43.13344849 50.48143433 43.13344849 50.48143433 44.28979492 49.95239258 C45.28084229 49.50017334 46.27188965 49.0479541 47.29296875 48.58203125 C48.76672974 47.90877808 48.76672974 47.90877808 50.27026367 47.22192383 C55.39421262 44.92826812 59.35736074 43.73130289 65 44 C61.33217123 46.44521918 57.69047695 47.43144858 53.49609375 48.70703125 C48.84056304 50.42879736 44.43967969 52.78016015 40 55 C40 37.18 40 19.36 40 1 C26.8 1 13.6 1 0 1 C0 0.67 0 0.34 0 0 Z " fill="#28F4FC" transform="translate(449,377)"/>
<path d="M0 0 C1.12588014 0.95729916 2.2506715 1.91587895 3.375 2.875 C4.00148438 3.40867187 4.62796875 3.94234375 5.2734375 4.4921875 C6.55836651 5.61432007 7.79371975 6.79371975 9 8 C9.46905118 20.18853295 6.51569765 33.13043377 4.9375 45.1875 C4.51514922 48.43193284 4.09375375 51.67648508 3.67372131 54.92121887 C3.41370924 56.92799716 3.15223379 58.93458651 2.8891449 60.94096375 C2.77224808 61.83982803 2.65535126 62.73869232 2.53491211 63.66479492 C2.37955238 64.85174202 2.37955238 64.85174202 2.22105408 66.06266785 C1.96221109 68.00620061 1.96221109 68.00620061 2 70 C2.99 70.33 3.98 70.66 5 71 C5 71.66 5 72.32 5 73 C6.65 73 8.3 73 10 73 C10 73.33 10 73.66 10 74 C4.5819398 74.36120401 4.5819398 74.36120401 2.1875 72.875 C-1.36313744 67.26873035 0.36373923 60.41227947 1.21484375 54.23046875 C1.34943497 53.19489334 1.48402618 52.15931793 1.62269592 51.09236145 C2.05273576 47.78959773 2.4941396 44.48849997 2.9375 41.1875 C3.37626806 37.89710139 3.81237613 34.6064324 4.24159241 31.31477356 C4.50843619 29.27045814 4.78078023 27.22685043 5.05955505 25.18412781 C6.84459288 15.21097005 6.84459288 15.21097005 4.6875 5.87890625 C3.8521875 5.22728516 3.8521875 5.22728516 3 4.5625 C2.01 3.716875 1.02 2.87125 0 2 C0 1.34 0 0.68 0 0 Z " fill="#22C0D6" transform="translate(391,573)"/>
<path d="M0 0 C0.66 0.33 1.32 0.66 2 1 C0.8350206 2.4048281 -0.33131105 3.80855369 -1.50390625 5.20703125 C-2.52097942 6.42592573 -3.52849446 7.6528461 -4.52734375 8.88671875 C-5.28724609 9.80904297 -5.28724609 9.80904297 -6.0625 10.75 C-6.76052734 11.60851562 -6.76052734 11.60851562 -7.47265625 12.484375 C-9.18558363 14.18415972 -10.81799349 14.99828045 -13 16 C-14.35113205 16.97581759 -15.68946944 17.97029741 -17 19 C-15.60652624 15.84795019 -13.97514921 13.73828227 -11.5234375 11.328125 C-10.51796875 10.33232422 -10.51796875 10.33232422 -9.4921875 9.31640625 C-8.79351562 8.63449219 -8.09484375 7.95257813 -7.375 7.25 C-6.66859375 6.55261719 -5.9621875 5.85523438 -5.234375 5.13671875 C-3.49401297 3.41987512 -1.74915019 1.70788168 0 0 Z " fill="#21C6DD" transform="translate(402,362)"/>
<path d="M0 0 C7.64570778 0.24663573 12.88756565 2.35501208 19 7 C19.99 8.485 19.99 8.485 21 10 C20.01 10.495 20.01 10.495 19 11 C19 10.34 19 9.68 19 9 C18.12794922 8.566875 18.12794922 8.566875 17.23828125 8.125 C15.85422878 7.42935059 14.47538498 6.72308981 13.10546875 6 C8.79592337 3.75306799 4.71564684 2.17891171 0 1 C0 0.67 0 0.34 0 0 Z " fill="#29EBF4" transform="translate(524,457)"/>
<path d="M0 0 C0.99 0.33 1.98 0.66 3 1 C5.05893621 1.22325814 7.12233653 1.40705759 9.1875 1.5625 C10.27417969 1.64628906 11.36085938 1.73007812 12.48046875 1.81640625 C13.72763672 1.90728516 13.72763672 1.90728516 15 2 C11.27367284 4.48421811 8.31338065 4.42240263 4 4 C0.5 3 0.5 3 -2 2 C-1.34 1.34 -0.68 0.68 0 0 Z " fill="#26D4E1" transform="translate(512,518)"/>
<path d="M0 0 C1.32 0.33 2.64 0.66 4 1 C4 1.66 4 2.32 4 3 C4.66 3 5.32 3 6 3 C6.66 4.32 7.32 5.64 8 7 C4.21388773 6.45912682 2.44599233 4.88277668 0 2 C0 1.34 0 0.68 0 0 Z " fill="#22CCE2" transform="translate(629,369)"/>
<path d="M0 0 C2 1 2 1 2 1 Z " fill="#2DD1E6" transform="translate(480,623)"/>
<path d="M0 0 C2 1 2 1 2 1 Z " fill="#2CD4E6" transform="translate(465,619)"/>
<path d="" fill="#2CCFE1" transform="translate(0,0)"/>
<path d="" fill="#2BCFE2" transform="translate(0,0)"/>
<path d="" fill="#505150" transform="translate(0,0)"/>
<path d="" fill="#2CD0E4" transform="translate(0,0)"/>
<path d="" fill="#2CD1E3" transform="translate(0,0)"/>
<path d="" fill="#2ECCE0" transform="translate(0,0)"/>
<path d="" fill="#2ED3E6" transform="translate(0,0)"/>
<path d="" fill="#2ACFE2" transform="translate(0,0)"/>
<path d="" fill="#2BCDE0" transform="translate(0,0)"/>
<path d="" fill="#2BCEE1" transform="translate(0,0)"/>
<path d="" fill="#2CD4E6" transform="translate(0,0)"/>
<path d="" fill="#2ED3E6" transform="translate(0,0)"/>
<path d="" fill="#2CD0E0" transform="translate(0,0)"/>
<path d="" fill="#2ECFE2" transform="translate(0,0)"/>
<path d="" fill="#2FD1E3" transform="translate(0,0)"/>
<path d="" fill="#2CCDE3" transform="translate(0,0)"/>
<path d="" fill="#2ACEE3" transform="translate(0,0)"/>
<path d="" fill="#2FCBDE" transform="translate(0,0)"/>
<path d="" fill="#27CAE0" transform="translate(0,0)"/>
<path d="" fill="#2BCDDF" transform="translate(0,0)"/>
<path d="" fill="#2DCDE0" transform="translate(0,0)"/>
<path d="" fill="#2DCFE1" transform="translate(0,0)"/>
<path d="" fill="#2BD1E3" transform="translate(0,0)"/>
<path d="" fill="#2DCFE2" transform="translate(0,0)"/>
<path d="" fill="#2ECCE1" transform="translate(0,0)"/>
<path d="" fill="#2ED2E2" transform="translate(0,0)"/>
<path d="" fill="#2FCDE0" transform="translate(0,0)"/>
<path d="" fill="#2ED3E3" transform="translate(0,0)"/>
<path d="" fill="#2ECCDC" transform="translate(0,0)"/>
<path d="" fill="#30C9DD" transform="translate(0,0)"/>
<path d="" fill="#2FCEDF" transform="translate(0,0)"/>
<path d="" fill="#2ACFE3" transform="translate(0,0)"/>
<path d="" fill="#2FCADC" transform="translate(0,0)"/>
<path d="" fill="#26D0E4" transform="translate(0,0)"/>
<path d="" fill="#2DCEE0" transform="translate(0,0)"/>
<path d="" fill="#2DCCDE" transform="translate(0,0)"/>
<path d="" fill="#2DCFE3" transform="translate(0,0)"/>
<path d="" fill="#27CBE1" transform="translate(0,0)"/>
<path d="" fill="#29CBE0" transform="translate(0,0)"/>
<path d="" fill="#2DCDE1" transform="translate(0,0)"/>
<path d="" fill="#26CBDF" transform="translate(0,0)"/>
<path d="" fill="#2ACCE0" transform="translate(0,0)"/>
<path d="" fill="#30CFE3" transform="translate(0,0)"/>
<path d="" fill="#2DCDDF" transform="translate(0,0)"/>
<path d="" fill="#2CD0E3" transform="translate(0,0)"/>
<path d="" fill="#2CCFE1" transform="translate(0,0)"/>
<path d="" fill="#505252" transform="translate(0,0)"/>
</svg>
